<svg width="20" height="16" viewBox="0 0 20 16" fill="none" xmlns="http://www.w3.org/2000/svg">
<path fill-rule="evenodd" clip-rule="evenodd" d="M17 4.52987e-07H3H3C1.34315 5.2541e-07 0 1.34315 0 3V13H0C-2.50178e-07 14.6568 1.34315 16 3 16H17C18.6569 16 20 14.6568 20 13V3C20 1.34315 18.6569 0 17 0V4.52987e-07ZM16.3319 2L10.0019 6.75L3.67188 2H16.3319ZM17 14H3C2.44772 14 2 13.5523 2 13V3.25L9.4 8.8C9.5731 8.92982 9.78363 9 10 9C10.2164 9 10.4269 8.92982 10.6 8.8L18 3.25V13C18 13.5523 17.5523 14 17 14Z" fill="#53BAD8"/>
</svg>
